<svg width="24" height="24" viewBox="0 0 24 24" fill="none" xmlns="http://www.w3.org/2000/svg">
<path fill-rule="evenodd" clip-rule="evenodd" d="M7.99997 2.75C7.58576 2.75 7.24997 3.08579 7.24997 3.5V20.5C7.24997 20.9142 7.58576 21.25 7.99997 21.25H16C16.4142 21.25 16.75 20.9142 16.75 20.5V3.5C16.75 3.08579 16.4142 2.75 16 2.75H7.99997ZM8.74997 19.75V4.25H15.25V19.75H8.74997ZM17.9 5.25C17.4858 5.25 17.15 5.58579 17.15 6V8C17.15 8.31852 17.3512 8.60229 17.6517 8.70772C17.9523 8.81315 18.2867 8.71724 18.4856 8.46852L20.0856 6.46852C20.2657 6.24339 20.3009 5.93496 20.176 5.67511C20.0511 5.41526 19.7883 5.25 19.5 5.25H17.9ZM17.15 11C17.15 10.5858 17.4858 10.25 17.9 10.25H19.5C19.7883 10.25 20.0511 10.4153 20.176 10.6751C20.3009 10.935 20.2657 11.2434 20.0856 11.4685L18.4856 13.4685C18.2867 13.7172 17.9523 13.8132 17.6517 13.7077C17.3512 13.6023 17.15 13.3185 17.15 13V11ZM17.9 15.25C17.4858 15.25 17.15 15.5858 17.15 16V18C17.15 18.3185 17.3512 18.6023 17.6517 18.7077C17.9523 18.8132 18.2867 18.7172 18.4856 18.4685L20.0856 16.4685C20.2657 16.2434 20.3009 15.935 20.176 15.6751C20.0511 15.4153 19.7883 15.25 19.5 15.25H17.9ZM6.84995 6C6.84995 5.58579 6.51416 5.25 6.09995 5.25H4.49995C4.21164 5.25 3.94886 5.41526 3.82397 5.67511C3.69908 5.93496 3.73419 6.24339 3.91429 6.46852L5.51429 8.46852C5.71327 8.71724 6.04764 8.81315 6.3482 8.70772C6.64876 8.60229 6.84995 8.31852 6.84995 8V6ZM6.09995 10.25C6.51416 10.25 6.84995 10.5858 6.84995 11V13C6.84995 13.3185 6.64876 13.6023 6.3482 13.7077C6.04764 13.8132 5.71327 13.7172 5.51429 13.4685L3.91429 11.4685C3.73419 11.2434 3.69908 10.935 3.82397 10.6751C3.94886 10.4153 4.21164 10.25 4.49995 10.25H6.09995ZM6.84995 16C6.84995 15.5858 6.51416 15.25 6.09995 15.25H4.49995C4.21164 15.25 3.94886 15.4153 3.82397 15.6751C3.69908 15.935 3.73419 16.2434 3.91429 16.4685L5.51429 18.4685C5.71327 18.7172 6.04764 18.8132 6.3482 18.7077C6.64876 18.6023 6.84995 18.3185 6.84995 18V16ZM12 8.75C12.9665 8.75 13.75 7.9665 13.75 7C13.75 6.0335 12.9665 5.25 12 5.25C11.0335 5.25 10.25 6.0335 10.25 7C10.25 7.9665 11.0335 8.75 12 8.75ZM13.75 12C13.75 12.9665 12.9665 13.75 12 13.75C11.0335 13.75 10.25 12.9665 10.25 12C10.25 11.0335 11.0335 10.25 12 10.25C12.9665 10.25 13.75 11.0335 13.75 12ZM12 18.75C12.9665 18.75 13.75 17.9665 13.75 17C13.75 16.0335 12.9665 15.25 12 15.25C11.0335 15.25 10.25 16.0335 10.25 17C10.25 17.9665 11.0335 18.75 12 18.75Z" fill="#6E7480"/>
</svg>
